<?xml version="1.0" standalone="no"?>
<!DOCTYPE svg PUBLIC "-//W3C//DTD SVG 20010904//EN"
 "http://www.w3.org/TR/2001/REC-SVG-20010904/DTD/svg10.dtd">
<svg version="1.0" xmlns="http://www.w3.org/2000/svg"
 width="1777.000000pt" height="901.000000pt" viewBox="0 0 1777.000000 901.000000"
 preserveAspectRatio="xMidYMid meet">

<g transform="translate(0.000000,901.000000) scale(0.100000,-0.100000)"
fill="#000000" stroke="none">
<path d="M10733 8113 c-29 -6 -73 -51 -74 -77 -3 -77 6 -140 31 -210 71 -202
93 -256 105 -256 6 0 30 21 52 48 22 26 92 84 156 130 138 98 178 150 156 203
-14 36 -62 69 -100 69 -14 0 -47 -6 -73 -14 l-47 -14 -24 38 c-38 60 -116 96
-182 83z"/>
<path d="M8660 7753 c-206 -20 -416 -64 -585 -123 -99 -35 -282 -119 -331
-152 l-32 -22 29 -67 c48 -113 73 -216 73 -304 -1 -183 -44 -247 -212 -311
-170 -65 -211 -85 -251 -129 -21 -23 -42 -57 -46 -75 -7 -33 2 -160 12 -160 7
0 58 43 118 99 67 63 221 199 269 236 21 17 44 35 50 40 12 12 242 201 296
244 19 15 85 65 145 111 61 46 112 87 115 90 3 3 21 17 40 30 19 14 58 43 85
65 28 22 66 51 85 65 18 14 78 59 132 100 54 41 154 117 223 169 69 52 125 96
125 97 0 5 -291 2 -340 -3z"/>
<path d="M3463 7628 c-54 -87 -160 -258 -263 -428 -143 -234 -888 -1446 -929
-1510 -8 -14 -21 -34 -27 -45 -6 -11 -84 -139 -174 -285 -90 -146 -198 -321
-240 -390 -43 -69 -147 -237 -232 -375 -85 -137 -167 -272 -183 -300 -16 -27
-36 -60 -45 -72 -16 -20 -17 -70 -12 -580 2 -307 5 -559 7 -561 1 -1 603 -2
1338 -2 905 0 1338 -3 1342 -10 3 -6 6 -237 5 -515 l-1 -505 721 0 720 0 0
509 c0 455 2 510 16 515 9 3 164 6 345 6 l329 0 0 56 c0 46 -5 62 -28 93 -197
253 -352 651 -391 1003 -6 54 -11 100 -11 102 0 3 -57 7 -127 8 l-128 3 3
1663 3 1662 -1005 0 -1006 0 -27 -42z m585 -2255 l-3 -1028 -635 -3 c-349 -1
-641 0 -647 3 -9 3 3 30 37 83 28 43 50 84 50 90 0 5 4 12 8 14 5 2 91 136
192 298 203 326 253 407 321 513 25 40 57 91 70 114 13 23 128 207 255 410
127 202 233 373 235 378 11 27 101 155 110 155 6 0 8 -379 7 -1027z"/>
<path d="M13718 7659 c-6 -4 -8 -11 -4 -17 3 -6 1 -14 -5 -18 -8 -5 -9 -3 -4
7 5 8 5 11 1 7 -10 -9 -44 -67 -59 -100 -6 -16 -14 -28 -18 -28 -4 0 -19 -24
-34 -52 -15 -29 -30 -55 -34 -58 -3 -3 -15 -21 -26 -41 -11 -20 -32 -54 -46
-75 -14 -21 -37 -60 -52 -86 -14 -25 -38 -66 -54 -90 -45 -70 -52 -81 -68
-115 -8 -17 -19 -34 -25 -38 -5 -3 -10 -15 -10 -25 0 -10 -5 -22 -12 -26 -7
-5 -8 -3 -3 6 5 9 4 11 -3 6 -7 -4 -12 -15 -12 -24 0 -9 -11 -30 -25 -46 -14
-17 -23 -36 -20 -44 3 -8 0 -12 -7 -10 -14 5 -41 -39 -33 -52 3 -4 -2 -11 -10
-14 -16 -6 -40 -54 -36 -71 2 -5 -1 -7 -5 -3 -8 9 -33 -21 -34 -41 0 -8 -8
-20 -17 -27 -16 -12 -16 -15 -3 -24 13 -8 11 -11 -7 -16 -21 -6 -27 -16 -24
-36 0 -5 -3 -8 -8 -8 -5 0 -13 -9 -16 -20 -4 -11 -11 -17 -17 -14 -7 5 -9 2
-6 -7 3 -8 0 -23 -8 -33 -7 -11 -11 -23 -8 -27 5 -8 -10 -13 -28 -10 -5 0 -8
-7 -8 -17 0 -9 -7 -25 -15 -36 -23 -31 0 -55 47 -49 34 5 38 3 38 -16 0 -25
-12 -27 -30 -6 -7 9 -20 13 -28 10 -8 -3 -21 0 -29 6 -11 10 -15 8 -19 -9 -4
-12 -11 -19 -20 -15 -8 3 -14 0 -14 -6 0 -6 7 -11 15 -11 8 0 15 -9 15 -20 0
-16 -7 -20 -30 -20 -20 0 -33 -6 -37 -17 -4 -10 -14 -24 -22 -31 -9 -8 -10
-11 -3 -7 6 3 12 1 12 -4 0 -8 180 -11 585 -11 383 0 585 3 585 10 0 14 37 12
44 -2 5 -10 7 -10 12 -1 3 8 15 11 28 7 15 -3 28 1 37 12 13 16 12 16 -9 5
l-23 -12 16 30 c8 17 21 31 28 31 8 0 7 -4 -3 -10 -13 -8 -12 -10 3 -10 22 0
22 19 1 27 -11 4 -22 -1 -30 -12 -12 -16 -14 -16 -14 -3 0 9 12 26 27 38 25
20 28 20 33 4 9 -26 23 1 15 29 -5 17 -4 19 4 7 8 -11 11 -12 11 -2 0 8 5 10
13 6 6 -4 9 -4 5 1 -4 4 -2 15 5 23 10 13 9 14 -2 7 -10 -5 -12 -4 -7 3 4 7
14 12 22 12 8 0 12 5 9 10 -3 6 0 13 8 16 8 3 17 14 20 25 6 22 -9 26 -16 4
-4 -11 -4 -10 -3 2 1 13 10 18 33 18 17 0 29 -3 27 -7 -2 -3 2 -8 8 -10 8 -3
13 -23 13 -49 1 -24 2 -99 3 -166 l2 -123 50 0 50 0 0 40 0 40 640 0 c420 0
640 3 640 10 0 6 6 9 13 8 8 -2 12 16 13 62 0 36 4 377 8 758 l8 692 -44 2
c-143 5 -1952 2 -1960 -3z"/>
<path d="M7380 7479 c0 -5 5 -7 10 -4 6 3 10 8 10 11 0 2 -4 4 -10 4 -5 0 -10
-5 -10 -11z"/>
<path d="M10510 7083 c0 -5 29 -55 64 -113 l63 -105 -56 -16 c-124 -35 -270
-100 -651 -291 -162 -81 -285 -147 -273 -147 19 -1 21 -5 17 -38 -9 -64 -12
-68 -33 -49 -9 9 -20 14 -23 11 -2 -3 -10 6 -16 20 -9 19 -9 25 0 25 6 0 9 3
5 6 -3 4 -47 -13 -96 -36 -69 -33 -87 -45 -78 -55 7 -6 23 -26 37 -43 14 -18
42 -51 63 -74 20 -23 37 -47 37 -54 0 -6 9 -23 20 -37 21 -26 21 -52 0 -102
-4 -11 -13 -35 -20 -52 -7 -18 -17 -33 -23 -33 -6 0 -7 -3 -4 -7 4 -3 2 -12
-4 -20 -6 -7 -9 -13 -6 -13 3 0 -8 -14 -24 -31 -16 -17 -29 -37 -29 -44 0 -7
-21 -31 -46 -54 l-47 -42 22 -20 c22 -20 23 -21 44 -2 40 33 92 86 78 78 -9
-5 -12 -4 -7 3 4 7 13 12 20 12 8 0 19 13 26 30 7 16 21 39 31 51 10 12 16 26
12 32 -3 5 -1 7 4 4 6 -4 16 6 22 23 17 49 28 38 71 -65 4 -11 15 -47 25 -80
9 -33 21 -74 26 -91 5 -17 9 -42 9 -56 0 -13 3 -28 7 -31 3 -4 7 -17 9 -30 6
-69 30 -250 40 -312 3 -16 7 -151 10 -298 5 -219 3 -298 -12 -430 -9 -89 -17
-195 -17 -235 0 -44 -4 -68 -9 -60 -6 9 -8 5 -6 -12 3 -23 8 -25 56 -28 l52
-3 0 -60 0 -59 -64 0 c-36 0 -67 -4 -70 -9 -3 -5 -8 -25 -11 -45 -2 -20 -7
-41 -10 -46 -4 -6 1 -7 12 -3 15 6 16 4 6 -8 -10 -12 -8 -18 7 -32 22 -19 50
-23 50 -7 0 6 23 10 50 10 28 0 50 -5 50 -10 0 -7 207 -10 620 -10 l620 1 0
24 c0 13 4 27 10 30 5 3 8 19 6 35 -2 16 2 31 8 33 8 3 7 9 -3 20 -11 15 -11
17 1 17 19 0 38 71 24 92 -7 12 -5 21 7 33 11 10 17 33 17 59 0 24 4 56 10 72
13 40 19 134 8 134 -5 0 -5 7 1 18 5 9 12 74 16 143 4 70 11 132 15 139 4 6
23 15 41 19 33 7 34 9 56 93 12 48 34 117 48 155 15 37 36 93 47 123 11 30 24
63 29 72 5 10 9 30 9 45 0 19 3 24 9 15 6 -10 10 -9 14 7 3 13 1 19 -5 15 -6
-4 -2 5 7 20 10 14 15 35 12 46 -3 11 -2 20 2 20 4 0 8 7 8 15 0 33 -31 -14
-99 -150 -96 -190 -161 -305 -225 -397 -31 -44 -51 -83 -47 -89 5 -8 3 -9 -6
-4 -7 4 -15 3 -19 -2 -21 -32 -323 -77 -395 -59 -35 9 -34 40 2 75 38 39 70
81 84 114 7 15 17 27 22 27 4 0 5 7 2 16 -3 8 -2 13 3 10 8 -6 21 10 92 114
25 36 80 115 122 177 42 61 77 116 77 122 0 6 4 11 9 11 5 0 21 20 35 43 24
41 24 47 15 113 -29 191 -45 285 -56 314 -3 8 -7 20 -8 25 -2 17 -16 66 -41
150 -34 114 -45 146 -59 180 -7 17 -23 57 -36 90 -29 77 -130 286 -168 350
-17 28 -38 65 -47 83 -9 17 -20 32 -25 32 -5 0 -9 4 -9 9 0 10 -107 172 -119
181 -4 3 -39 42 -79 88 -40 45 -72 79 -72 75z m-893 -885 c-2 -13 -4 -5 -4 17
-1 22 1 32 4 23 2 -10 2 -28 0 -40z m1603 -1808 c0 -5 -4 -10 -10 -10 -5 0
-10 5 -10 10 0 6 5 10 10 10 6 0 10 -4 10 -10z"/>
<path d="M12780 6115 c-18 -21 -3 -32 16 -13 10 9 12 18 6 22 -5 3 -15 -1 -22
-9z"/>
<path d="M11719 6113 c-1 -5 -3 -19 -4 -32 -2 -23 -2 -24 11 -6 16 22 18 45 4
45 -5 0 -11 -3 -11 -7z"/>
<path d="M6933 6047 c-134 -152 -133 -366 1 -525 43 -53 48 -75 6 -30 -33 34
-36 33 -18 -9 6 -15 12 -33 13 -39 14 -62 80 -207 130 -284 34 -52 65 -103 68
-113 4 -10 11 -15 17 -12 5 3 10 -2 10 -12 0 -25 86 -107 105 -100 9 4 12 1 8
-9 -6 -17 25 -56 39 -48 4 3 7 0 6 -8 -2 -7 3 -12 10 -10 8 1 11 -2 7 -8 -3
-5 -1 -10 6 -10 7 0 10 -3 6 -6 -3 -4 4 -21 17 -38 12 -17 31 -48 41 -68 11
-21 23 -38 28 -38 4 0 6 -4 3 -8 -3 -4 10 -34 28 -66 18 -33 35 -55 38 -50 3
5 3 3 1 -5 -3 -13 35 -87 60 -113 6 -7 18 -25 25 -39 8 -14 30 -44 50 -67 21
-22 42 -48 48 -59 6 -10 22 -23 35 -30 13 -7 26 -21 31 -32 4 -11 18 -27 31
-36 13 -8 44 -33 67 -55 24 -22 48 -40 55 -40 6 0 24 -13 40 -30 15 -16 32
-27 37 -24 4 3 8 1 8 -3 0 -9 100 -73 114 -73 4 0 4 5 0 12 -4 7 -3 8 5 4 6
-4 9 -12 6 -17 -4 -5 2 -12 12 -15 10 -3 30 -12 44 -19 22 -12 29 -12 45 -1
17 13 17 15 -11 51 -17 21 -49 63 -72 94 -23 31 -51 68 -62 82 -11 15 -37 57
-56 95 -37 71 -40 114 -8 114 33 0 111 -43 122 -67 6 -13 16 -29 21 -36 28
-32 100 -138 100 -146 0 -5 9 -12 19 -16 13 -4 18 -12 14 -22 -5 -13 -3 -13
15 -2 l20 13 -23 37 c-64 101 -125 289 -123 379 0 36 3 52 5 35 9 -76 26 -148
43 -182 10 -21 30 -66 44 -101 14 -35 32 -70 39 -77 28 -33 33 -41 30 -52 -6
-17 38 -4 65 20 17 16 19 23 10 30 -9 6 -6 7 8 4 17 -4 35 10 80 61 33 36 66
73 74 81 59 63 174 305 162 340 -2 8 2 18 11 22 8 5 18 23 22 39 4 17 13 43
20 58 17 34 29 123 18 138 -14 18 -79 64 -91 64 -7 0 -21 9 -32 20 -11 11 -27
20 -35 20 -8 0 -15 4 -15 9 0 5 -9 12 -20 16 -19 6 -95 123 -156 240 -17 33
-36 59 -42 58 -6 -2 -9 4 -6 12 3 8 -7 36 -23 62 -15 27 -35 61 -43 77 -8 17
-26 42 -40 57 -14 14 -32 36 -40 49 -8 13 -36 45 -62 72 l-46 48 -52 -20 c-29
-11 -65 -27 -80 -35 -16 -8 -37 -17 -47 -18 -10 -2 -31 -10 -48 -16 -16 -7
-97 -35 -180 -63 -82 -27 -158 -57 -167 -65 -11 -10 -26 -13 -43 -9 -14 4 -31
3 -38 -1 -7 -4 -19 -8 -27 -8 -8 0 -14 -6 -12 -12 1 -7 -2 -13 -8 -13 -5 0
-10 4 -10 9 0 5 -17 7 -37 4 -42 -5 -34 -14 -139 157 -18 30 -37 60 -42 66 -5
5 -15 21 -22 35 -35 66 -222 359 -230 359 -4 0 -21 -15 -37 -33z m64 -729 c-3
-8 -6 -5 -6 6 -1 11 2 17 5 13 3 -3 4 -12 1 -19z m201 -333 c-3 -3 -9 2 -12
12 -6 14 -5 15 5 6 7 -7 10 -15 7 -18z"/>
<path d="M11680 5863 c-7 -32 -21 -86 -32 -121 -11 -34 -21 -73 -22 -85 -2
-12 -8 -31 -14 -42 -8 -16 -28 -80 -38 -125 0 -3 -3 -12 -6 -20 -13 -32 -16
-60 -7 -60 5 0 9 7 9 15 0 8 5 15 11 15 11 0 9 -43 -6 -140 -4 -28 -3 -31 4
-13 6 12 14 50 20 85 5 35 15 86 21 113 6 28 15 73 20 100 9 49 30 166 50 274
13 74 5 77 -10 4z"/>
<path d="M13881 5824 c0 -11 3 -14 6 -6 3 7 2 16 -1 19 -3 4 -6 -2 -5 -13z"/>
<path d="M12545 5730 c3 -5 8 -10 11 -10 2 0 4 5 4 10 0 6 -5 10 -11 10 -5 0
-7 -4 -4 -10z"/>
<path d="M11561 5244 c0 -11 3 -14 6 -6 3 7 2 16 -1 19 -3 4 -6 -2 -5 -13z"/>
<path d="M11532 5094 c-13 -71 -25 -139 -28 -151 -2 -12 0 -24 5 -27 5 -4 12
24 16 61 4 38 13 103 22 145 8 43 13 83 11 89 -2 6 -14 -47 -26 -117z"/>
<path d="M11757 5053 c-4 -3 -7 -11 -7 -17 0 -6 5 -5 12 2 6 6 9 14 7 17 -3 3
-9 2 -12 -2z"/>
<path d="M11742 4950 c0 -14 2 -19 5 -12 2 6 2 18 0 25 -3 6 -5 1 -5 -13z"/>
<path d="M11715 4868 c-4 -34 -12 -74 -17 -88 -11 -26 -35 -125 -67 -270 -20
-88 -42 -157 -64 -200 -17 -33 -14 -66 9 -91 10 -12 17 -32 16 -45 -2 -13 0
-24 5 -24 5 0 15 -21 22 -46 8 -26 23 -52 37 -61 13 -8 24 -21 24 -29 0 -24
29 -3 39 29 18 55 31 206 33 362 1 196 -12 508 -22 518 -4 5 -11 -20 -15 -55z"/>
<path d="M11482 4843 c-8 -40 -11 -78 -9 -85 3 -7 6 -2 6 13 1 14 6 30 12 36
5 5 9 32 7 59 l-3 49 -13 -72z"/>
<path d="M11455 4730 c-3 -5 -1 -10 4 -10 6 0 11 5 11 10 0 6 -2 10 -4 10 -3
0 -8 -4 -11 -10z"/>
<path d="M11441 4674 c0 -11 3 -14 6 -6 3 7 2 16 -1 19 -3 4 -6 -2 -5 -13z"/>
<path d="M11426 4607 c-5 -26 -6 -51 -2 -54 12 -13 17 6 14 53 l-3 49 -9 -48z"/>
<path d="M11570 4200 c0 -5 5 -10 11 -10 5 0 7 5 4 10 -3 6 -8 10 -11 10 -2 0
-4 -4 -4 -10z"/>
<path d="M9795 4140 c-3 -5 -1 -10 4 -10 6 0 11 5 11 10 0 6 -2 10 -4 10 -3 0
-8 -4 -11 -10z"/>
<path d="M9726 3915 c-9 -26 -7 -32 5 -12 6 10 9 21 6 23 -2 3 -7 -2 -11 -11z"/>
<path d="M9709 3878 c-5 -17 -4 -48 3 -48 4 0 7 11 6 25 -2 21 -6 31 -9 23z"/>
<path d="M9686 3799 c3 -6 3 -14 -2 -18 -15 -11 -35 -51 -25 -51 5 0 12 -8 14
-17 4 -17 5 -17 6 0 1 10 9 17 21 17 17 0 20 7 20 40 0 34 -3 40 -21 40 -12 0
-18 -4 -13 -11z"/>
<path d="M9700 3680 c0 -5 14 -10 30 -10 17 0 30 5 30 10 0 6 -13 10 -30 10
-16 0 -30 -4 -30 -10z"/>
<path d="M11075 3670 c4 -6 11 -8 16 -5 14 9 11 15 -7 15 -8 0 -12 -5 -9 -10z"/>
<path d="M9640 3620 c0 -5 5 -10 10 -10 6 0 10 5 10 10 0 6 -4 10 -10 10 -5 0
-10 -4 -10 -10z"/>
<path d="M9567 3594 c-11 -14 -16 -28 -13 -31 3 -4 6 -1 6 6 0 8 8 10 23 6 15
-4 18 -3 9 3 -11 7 -10 12 3 26 12 11 13 16 3 16 -7 0 -21 -12 -31 -26z"/>
<path d="M11002 3440 c0 -14 2 -19 5 -12 2 6 2 18 0 25 -3 6 -5 1 -5 -13z"/>
<path d="M9340 3340 c0 -5 5 -10 10 -10 6 0 10 5 10 10 0 6 -4 10 -10 10 -5 0
-10 -4 -10 -10z"/>
<path d="M8853 3223 c9 -2 25 -2 35 0 9 3 1 5 -18 5 -19 0 -27 -2 -17 -5z"/>
</g>
</svg>
